<svg width="110" height="26" viewBox="0 0 110 26" fill="none" xmlns="http://www.w3.org/2000/svg">
<g clip-path="url(#clip0_423_97)">
<g opacity="0.5">
<path fill-rule="evenodd" clip-rule="evenodd" d="M5 5.83665L5.81814 1H10.0536H26.6446H29.5532H30.8801H33.7887H35.5088H38.4415H39.7443H42.6769H59.268H62.1766H63.5034H66.412H68.1321H72.3676L69.095 20.8038H75.1104H78.1783L81.466 1H85.7015H98.647H102.882L102.064 5.83665H97.8288H90.8389L90.0208 10.8899H96.1324H100.368L99.5497 15.7386H95.3142H89.2026L88.3845 20.8038H95.3744H99.6098L98.7917 25.6405H94.5563H81.6108H78.5277H77.3753H74.2923H62.3213H58.0859L61.3736 5.83665H58.4498H55.2137L51.9412 25.6405H47.7057H46.0698H41.8344L45.1069 5.83665H41.8588H38.9413L35.6536 25.6405H31.4181H29.698H25.4625L28.7503 5.83665H25.8265H22.5904L19.3178 25.6405H15.0824H13.4465H9.21102L12.4836 5.83665H9.23545H5Z" fill="white"/>
</g>
<g opacity="0.8">
<path fill-rule="evenodd" clip-rule="evenodd" d="M7.11755 5.83665L7.93569 1H12.1711H28.7622H31.6708H32.9976H35.9062H37.6264H40.559H41.8618H44.7945H61.3855H64.2941H65.6209H68.5295H70.2497H74.4851L71.2126 20.8038H77.228H80.2958L83.5836 1H87.819H100.765H105L104.182 5.83665H99.9464H92.9564L92.1383 10.8899H98.2499H102.485L101.667 15.7386H97.4318H91.3202L90.502 20.8038H97.492H101.727L100.909 25.6405H96.6738H83.7283H80.6452H79.4929H76.4098H64.4388H60.2034L63.4912 5.83665H60.5674H57.3313L54.0587 25.6405H49.8233H48.1873H43.9519L47.2245 5.83665H43.9763H41.0588L37.7711 25.6405H33.5357H31.8155H27.5801L30.8678 5.83665H27.944H24.7079L21.4354 25.6405H17.1999H15.564H11.3286L14.6011 5.83665H11.353H7.11755Z" fill="white"/>
</g>
</g>
<defs>
<clipPath id="clip0_423_97">
<rect width="110" height="25" fill="white" transform="translate(0 0.5)"/>
</clipPath>
</defs>
</svg>
